<?xml version="1.0" encoding="UTF-8"?>
<svg id="Capa_2" data-name="Capa 2" xmlns="http://www.w3.org/2000/svg" viewBox="0 0 20 13.57">
  <defs>
    <style>
      .cls-1 {
        fill: #fff;
      }

      .cls-2 {
        fill: #f28519;
      }
    </style>
  </defs>
  <g id="Capa_1-2" data-name="Capa 1">
    <g>
      <path class="cls-1" d="m19.36,1.34l-2.93,2.29V1.2c0-.66-.54-1.2-1.2-1.2H1.2C.54,0,0,.54,0,1.2v11.17c0,.66.54,1.2,1.2,1.2h14.03c.66,0,1.2-.54,1.2-1.2v-1.89l2.93,2.29c.24.19.64.04.64-.24V1.58c0-.28-.39-.43-.64-.24Z"/>
      <path class="cls-2" d="m6.39,3.31v6.95c0,.18.29.27.46.15l4.59-3.13c.4-.27.4-.72,0-1l-4.59-3.13c-.18-.12-.46-.03-.46.15Z"/>
    </g>
  </g>
</svg>