<?xml version="1.0" encoding="UTF-8" standalone="no"?>
<svg
   id="Capa_2"
   data-name="Capa 2"
   viewBox="0 0 18 18"
   version="1.1"
   sodipodi:docname="social-media-x.svg"
   inkscape:version="1.3.1 (91b66b0783, 2023-11-16, custom)"
   xmlns:inkscape="http://www.inkscape.org/namespaces/inkscape"
   xmlns:sodipodi="http://sodipodi.sourceforge.net/DTD/sodipodi-0.dtd"
   xmlns="http://www.w3.org/2000/svg"
   xmlns:svg="http://www.w3.org/2000/svg">
  <sodipodi:namedview
     id="namedview20"
     pagecolor="#ffffff"
     bordercolor="#666666"
     borderopacity="1.0"
     inkscape:pageshadow="2"
     inkscape:pageopacity="0.0"
     inkscape:pagecheckerboard="0"
     showgrid="false"
     inkscape:zoom="16.18045"
     inkscape:cx="15.172631"
     inkscape:cy="10.012082"
     inkscape:window-width="1366"
     inkscape:window-height="717"
     inkscape:window-x="0"
     inkscape:window-y="27"
     inkscape:window-maximized="1"
     inkscape:current-layer="g16"
     inkscape:showpageshadow="2"
     inkscape:deskcolor="#d1d1d1" />
  <defs
     id="defs4">
    <style
       id="style2">
      .cls-1 {
        fill: #fff;
      }

      .cls-2 {
        fill: #f28519;
      }
    </style>
    <clipPath
       clipPathUnits="userSpaceOnUse"
       id="clipPath6420">
      <path
         id="path6422"
         style="opacity:1;fill:none;fill-opacity:1;stroke:#040000;stroke-width:2;stroke-miterlimit:4;stroke-dasharray:none;stroke-opacity:1;paint-order:stroke markers fill"
         d="m 43.546875,4 c 0.0097,0.00269 0.01957,0.00509 0.0293,0.00781 0.04937,0.013811 0.09486,0.030169 0.142578,0.044922 0.06792,0.00782 0.115833,0.017938 0.400391,0.078125 0.746741,0.1579402 0.998496,0.3692661 0.958984,0.6132812 0.724476,0.5856365 0.958393,1.3298494 0.78125,1.9550782 0.03937,0.1502008 0.06264,0.3018332 0.08984,0.453125 L 46,7.1503906 V 4 Z M 32.230469,6.2539062 c -0.133486,0.010927 -0.265903,0.028092 -0.396485,0.041016 -0.295522,0.031473 -0.59288,0.071643 -0.890625,0.082031 0.141873,0.4414579 0.181712,0.4749355 -0.126953,0.46875 -0.0378,0.031105 -0.241134,-0.017737 -0.15039,0.00391 -0.07108,0.00306 -0.141964,9.261e-4 -0.212891,0.00195 -0.08168,0.00919 -0.163997,0.021738 -0.246094,0.025391 -0.285501,0.012706 -0.567351,0.00106 -0.847656,-0.054687 -0.082,-0.017294 -0.134453,-0.035583 -0.183594,-0.046875 -0.253771,-0.028719 -0.506884,-0.056764 -0.759765,-0.095703 -0.09884,0.040424 -0.23737,0.033354 -0.386719,0.015625 -0.01273,9.725e-4 -0.02275,-1.331e-4 -0.03125,-0.00391 -0.179907,-0.022762 -0.368095,-0.053871 -0.513672,-0.037109 0.0037,-0.040302 0.0062,-0.080783 0.0098,-0.1210938 -0.107273,-0.01786 -0.214993,-0.033489 -0.322266,-0.050781 0.002,0.026586 0.006,0.053523 0.0078,0.080078 l 0.002,0.00195 c 0.04221,0.00993 0.08441,0.021002 0.126953,0.029297 0.04225,0.00824 -0.117966,0.011869 -0.126953,-0.029297 -0.159172,-0.037435 -0.318797,-0.081209 -0.482422,-0.095703 -0.101131,-0.011336 -0.203535,-0.010503 -0.302735,-0.033203 -0.04231,-0.00968 0.08771,-0.00113 0.13086,-0.00586 0.03328,-0.00365 -0.06808,0.00126 -0.101563,0.00195 -0.118359,0.00245 -0.230415,-0.00491 -0.34375,-0.013672 -0.115434,0.016511 -0.176416,0.027077 -0.33789,0.058594 -0.319164,0.061056 -0.05551,-0.00839 -0.208985,0.035156 -0.220714,0.062623 -0.439376,0.1323753 -0.666015,0.1660156 -0.194412,0.070055 -0.382973,0.1593966 -0.583985,0.2070312 -0.395409,0.093701 -0.726442,0.082692 -1.123047,0.056641 -0.06121,-0.00402 -0.12052,-0.022154 -0.18164,-0.027344 -0.305172,-0.025926 -0.418486,-0.018505 -0.72461,-0.015625 -0.951981,0.1137956 0.199554,-0.026332 -0.894531,0.1152344 -0.135632,0.01755 -0.271444,0.047941 -0.408203,0.048828 -0.108627,7.048e-4 0.414606,-0.095435 0.306641,-0.1074219 -0.10357,0.040049 -0.252509,0.077152 -0.384766,0.1113281 -0.202073,0.088561 -0.405591,0.1443873 -0.634766,0.1894532 -0.07562,0.014871 -0.150992,0.029768 -0.226562,0.044922 -0.133604,0.025956 -0.268073,0.055877 -0.402344,0.078125 -0.319648,0.052965 -0.367043,0.045909 -0.675781,0.078125 -0.356924,0.037243 -0.712147,0.074493 -1.070313,0.097656 -0.508069,0.050547 -1.005954,0.1648579 -1.511718,0.2324219 -0.496363,0.035948 -0.393678,0.053281 -0.806641,0.013672 -0.04447,-0.00426 -0.155326,0.00987 -0.140625,-0.017578 -0.03896,0.00947 -0.07798,0.018983 -0.117188,0.027344 -0.296049,0.063126 -0.324353,0.062771 -0.632812,0.109375 -0.515043,0.058221 0.03577,-0.00467 -0.408203,0.048828 -0.01077,0.0013 -0.02994,0.00604 -0.04687,0.00977 -0.155729,0.077714 -0.290898,0.1407093 -0.509766,0.2089844 -0.377321,0.1177047 -0.765193,0.1807054 -1.158203,0.2089844 -0.166789,0.012812 -0.161577,0.022252 -0.363281,0.091797 -0.252728,0.087138 -0.506114,0.171695 -0.761719,0.25 -0.363451,0.098608 -0.28183,0.075083 -0.542969,0.1289063 -0.223069,0.1310869 -0.4224,0.3004165 -0.642578,0.4375 -0.365148,0.2273437 -0.7486866,0.4299188 -1.1621091,0.5546875 -0.1064261,0.034523 -0.2102071,0.065146 -0.3125,0.097656 -0.00228,0.3273575 -0.00534,0.6535875 -0.023437,0.9804685 -0.018062,0.580555 -0.033677,1.163563 -0.070312,1.744141 0.039575,0.04682 0.062086,0.07842 0.1035156,0.126953 0.041879,0.04906 -0.035766,0.221718 -0.109375,0.382812 -8.342e-4,0.01829 1.267e-4,0.02206 0,0.0332 -0.00308,0.271112 -0.030151,0.478661 -0.078125,0.746094 L 8.3476562,14.53125 c 0.015664,-0.03113 0.029654,-0.06347 0.046875,-0.09375 0.019207,-0.03377 -0.011624,0.116659 -0.048828,0.105469 -0.00233,0.004 -0.005,0.0092 -0.00977,0.01758 -0.00103,0.0018 -0.00122,0.0026 -0.00195,0.0039 -0.017838,0.03312 -0.042601,0.07913 -0.033203,0.05859 0.012683,-0.02771 0.027438,-0.05473 0.041016,-0.08203 -0.1455303,-0.04378 -0.2893521,-0.09287 -0.4335938,-0.140625 -0.022274,0.349111 -0.047121,0.731667 -0.068359,1.068359 -0.00886,0.140492 -0.017251,0.281339 -0.025391,0.421875 -0.0036,0.06217 -0.00513,0.1254 -0.00977,0.1875 -0.00105,0.01407 0.00105,0.03004 -0.00781,0.04102 -0.00427,0.0053 -0.00768,-0.01208 -0.011719,-0.01758 0.038087,0.161208 0.07101,0.323556 0.099609,0.486329 0.00997,-0.0239 0.019326,-0.04804 0.029297,-0.07227 0.00212,-0.0043 0.00589,-0.01847 0.00586,-0.01367 -3.204e-4,0.04653 -0.011515,0.103208 -0.021484,0.162109 0.08602,0.515826 0.1264257,1.038282 0.1328125,1.5625 0.00889,0.806297 0.00684,1.611663 -0.00195,2.417969 -0.00162,0.655665 0.00723,1.311197 0.015625,1.966797 0.00568,1.134003 0.00405,2.26833 0.00195,3.402344 0.00469,1.207852 -9.945e-4,2.418775 0.1035156,3.623047 0.084198,0.808047 0.1499757,1.619224 0.2480469,2.425781 0.013661,0.104524 0.01911,0.209388 0.041016,0.3125 0.049704,0.233958 0.1432766,0.458553 0.1972657,0.691406 0.1729406,0.657752 0.3007635,1.324016 0.4160156,1.994141 0.029452,0.155582 0.079951,0.432134 0.1191406,0.595703 0.072864,0.304122 0.1773098,0.598708 0.2773438,0.894531 0.075264,0.21998 0.1360387,0.383245 0.1933593,0.615235 0.118976,0.481552 0.1438195,0.980016 0.070312,1.470703 -0.1333299,0.832779 -0.3580954,1.647838 -0.5039062,2.478515 -0.044548,0.244265 -0.088843,0.488299 -0.1328125,0.732422 0.081573,0.04075 0.1613173,0.0845 0.2480469,0.115235 0.3278037,0.106906 0.6623185,0.189485 0.9960934,0.27539 0.429229,0.112053 0.858853,0.224133 1.28711,0.339844 0.471835,0.12764 0.943257,0.256661 1.416016,0.380859 0.0072,0.0019 0.01432,0.004 0.02148,0.0059 0.09173,-0.01096 0.211413,-0.03138 0.279297,-0.03906 0.685273,-0.02802 1.376213,-0.04378 2.058593,0.03711 0.19257,0.03272 0.271979,0.04785 0.38086,0.06641 0.2148,-0.0044 0.4296,-0.01456 0.644531,-0.01758 0.710258,0.01807 0.500572,0.0027 1.195313,0.05859 0.0072,5.77e-4 0.01431,0.0014 0.02148,0.002 0.343177,-0.208571 0.693033,-0.373784 1.113281,-0.429688 0.289257,-0.03848 0.585665,-0.0164 0.875,0.02148 0.286997,0.03758 0.560546,0.149136 0.828125,0.259766 0.0032,-0.01226 0.0045,-0.02486 0.0078,-0.03711 0.04673,-0.174979 0.363813,0.0014 0.544922,0.002 0.939211,0.003 1.878058,0.0022 2.816406,0.04297 0.251207,0.02279 0.385556,0.04259 0.5625,0.08594 0.311676,-0.0055 0.624383,-0.0283 0.935547,0.002 0.09102,0.0087 0.358229,0.04851 0.49414,0.06836 0.0071,0.0012 0.01434,0.0027 0.02148,0.0039 0.315298,0.0045 0.626608,0.03897 0.939453,0.07617 0.07258,0.0061 0.143997,0.01703 0.216797,0.01953 0.250344,0.0086 0.50152,0.0023 0.751953,0.0078 0.09134,0.002 0.805465,0.01954 0.939453,0.02734 0.146729,0.0085 0.292958,0.02328 0.439453,0.03516 0.0802,0.01132 0.160034,0.02189 0.240234,0.0332 0.223014,-0.02865 0.378187,-0.03099 0.634766,-0.03906 0.532116,0.01544 1.063564,-0.01592 1.595703,-0.01172 0.503843,0.0012 0.998948,0.101009 1.496094,0.167969 0.25096,0.0338 0.66446,0.07959 0.923828,0.109375 0.206737,0.02115 0.748486,0.06824 0.882813,0.179688 0.0178,-0.0037 0.03489,-0.0102 0.05273,-0.01367 0.07677,-0.01501 0.154599,-0.02591 0.230469,-0.04492 l 0.01563,0.06641 c 0.761321,-0.07144 1.531309,-0.0527 2.294922,-0.0059 0.377618,0.0365 0.758352,2.55e-4 1.136718,0 0.189164,-0.01205 0.364094,0.0384 0.539063,0.0918 0.0052,-0.0033 0.01042,-0.0065 0.01563,-0.0098 0.138072,-0.09439 0.273097,-0.192996 0.410156,-0.289062 0.07479,-0.06341 0.147606,-0.130983 0.22461,-0.189454 0.02855,-0.02244 0.512348,-0.409808 0.621093,-0.480468 0.02423,-0.01575 -0.04212,0.04024 -0.06055,0.0625 -0.0055,0.0066 0.01559,-0.0093 0.02148,-0.01563 0.07029,-0.07514 0.138191,-0.152046 0.207031,-0.228516 0.08477,-0.08995 0.169136,-0.179581 0.253906,-0.269531 0.586781,-0.566823 0.324496,-0.344557 0.574219,-0.449219 0.01207,-0.01647 0.02293,-0.03585 0.03516,-0.05469 -0.01357,0.01446 -0.02327,0.03262 -0.03125,0.05273 0.08771,-0.03746 0.271518,-0.140192 0.539063,-0.302734 0.01698,-0.01776 0.03153,-0.03738 0.04687,-0.05664 -0.0962,0.03757 -0.236604,0.09902 -0.304688,0.132812 -0.08673,0.04305 -0.1621,0.102932 -0.240234,0.160157 0.08716,-0.137688 0.173116,-0.30294 0.21875,-0.384766 0.263397,-0.472336 0.534966,-0.94093 0.810547,-1.40625 0.138996,-0.229045 0.288214,-0.469036 0.435547,-0.707031 0.132543,-0.53874 0.254676,-1.083315 0.24414,-1.640625 -0.0151,-0.505501 -0.01498,-1.010052 -0.0059,-1.515625 0.0054,-0.287719 0.09483,-0.252303 -0.0059,-0.289063 -0.03477,-0.04114 -0.03026,-0.02959 -0.03516,-0.132812 -0.01745,-0.36674 -0.04864,-0.719171 0.06055,-1.070313 -0.0737,-0.03286 0.03391,-0.227515 0.04297,-0.333984 0.01886,-0.221571 0.03968,-0.442338 0.05664,-0.664063 0.05307,-0.69361 0.0884,-1.38899 0.148438,-2.082031 0.02391,-0.276099 0.05689,-0.550565 0.08594,-0.826172 0.0078,-0.05717 0.03907,-0.258985 0.06445,-0.43164 -0.02178,-0.0088 0.01126,-0.234013 0.01172,-0.326172 6e-4,-0.121722 0.0025,-0.24352 0.0039,-0.365235 -0.01489,-0.395808 -0.0493,-0.795713 0.01563,-1.189453 0.02432,-0.147484 0.05197,-0.231827 0.07617,-0.328125 -0.0018,-0.01175 -0.0041,-0.02341 -0.0059,-0.03516 -0.0075,-0.04999 0.0041,-0.101834 0.002,-0.152344 -0.0031,-0.07384 -0.01178,-0.147023 -0.01758,-0.220703 -0.07071,-0.599691 -0.264508,-1.175658 -0.402344,-1.761719 -0.05045,-0.214527 -0.16677,-0.791789 -0.21289,-1.017578 l -0.05469,-0.240234 c -0.01094,-0.03345 -0.02048,-0.06737 -0.0332,-0.09961 -0.002,-0.0052 0.0087,0.0052 0.01367,0.0078 l 0.01953,0.0918 c 0.03038,0.09287 0.06117,0.186407 0.121094,0.261719 0.157678,0.198153 0.611178,0.768874 0.548828,0.523437 -0.841881,-3.314039 -1.142974,-1.032392 -0.822266,-2.732422 0.185857,-1.115287 0.377371,-2.229107 0.542969,-3.347656 0.01173,-0.07924 0.02015,-0.158944 0.03125,-0.238281 -0.06832,-0.167549 -0.09963,-0.408306 -0.125,-0.826172 -7.47e-4,-0.01235 -0.0015,-0.264561 0.0039,-0.488281 -0.0045,-0.04899 -0.0087,-0.11632 -0.01367,-0.150391 -0.02385,-0.162811 -0.01949,-0.32806 -0.03125,-0.492187 -0.01384,-0.193136 -0.02693,-0.387286 -0.04492,-0.580079 -0.03599,-0.385759 -0.08653,-0.769188 -0.128906,-1.154297 -0.0131,-0.114261 -0.0143,-0.229178 -0.02344,-0.34375 -0.03619,-0.184817 -0.06752,-0.368362 -0.238281,-1.349609 -0.232049,-2.248439 -0.141251,-1.18222 -0.28711,-3.253906 -0.01963,-0.27882 -0.03122,-0.559443 -0.05664,-0.8378908 -0.02078,-0.086631 -0.02583,-0.093448 -0.04883,-0.1933593 -0.0047,-0.00404 -0.01257,-0.00561 -0.01367,-0.011719 -0.06976,-0.3944897 -0.04686,-0.338867 -0.08203,-0.5351562 -0.02291,-0.065428 -0.08466,-0.1880348 -0.04102,-0.1542969 0.0082,0.00636 0.01344,0.015358 0.01953,0.023437 -0.0086,-0.040512 -0.0256,-0.07681 -0.03516,-0.1171875 -0.02544,-0.1076707 -0.04187,-0.2119355 -0.06055,-0.3164062 -0.05992,-0.016004 -0.115013,-0.031455 -0.162109,-0.046875 -0.02808,0.048909 -0.05898,0.09488 -0.0918,0.140625 -0.07991,0.1113827 -0.09762,-0.024509 -0.09961,-0.2226563 -0.0948,-0.063928 -0.123456,-0.1519477 -0.101562,-0.2929687 -0.08981,-0.016357 -0.209397,-0.042641 -0.41211,-0.087891 -0.06718,-0.014742 -0.134003,-0.030116 -0.201171,-0.044922 -0.101865,0.029979 -0.193766,0.00362 -0.277344,-0.060547 -0.239795,-0.052973 -0.478779,-0.1060342 -0.71875,-0.1582032 -0.132119,-0.028723 -0.266377,-0.056942 -0.398438,-0.085937 -0.04288,-0.00942 -0.140751,-0.0032 -0.154297,-0.021484 -0.154195,0.017866 -0.299631,0.029034 -0.517578,0.011719 -0.192479,-0.015292 -0.38385,-0.047794 -0.574218,-0.080078 -0.108127,-0.018337 -0.202537,-0.061826 -0.308594,-0.085937 -0.06526,-0.014837 -0.133399,-0.025012 -0.199219,-0.037109 -0.211509,-0.026331 -0.147103,-0.018181 -0.332031,-0.019531 -0.07726,0.079266 -0.271121,0.046905 -0.619141,-0.019531 -0.0085,-0.00167 -0.01354,-0.00238 -0.02148,-0.00391 -0.0094,-7.158e-4 -0.01644,0.00327 -0.01563,-0.00195 -0.138716,-0.026117 -0.19643,-0.031689 -0.396484,-0.054687 -0.145196,-0.016692 -0.292196,-0.031171 -0.4375,-0.046875 -0.242073,-0.028923 -0.953833,-0.1069813 -1.201172,-0.1601563 -0.02689,-0.00578 0.10708,-0.016374 0.08008,-0.021484 -0.0594,-0.011235 -0.121191,0.00241 -0.181641,0.00195 C 34.60017,7.0164837 34.652364,7.014091 34.34375,6.984375 34.031961,6.931799 34.042113,6.914358 33.609375,6.7167969 33.759102,6.8059589 33.392988,6.6272429 33.322266,6.5957031 33.195451,6.5406971 32.94694,6.4367283 32.814453,6.3632812 c -0.041,-0.022726 -0.127614,-0.1027648 -0.183594,-0.109375 -0.132348,-0.015617 -0.266904,-0.010927 -0.40039,0 z m 9.634765,2.0351563 c 0.04572,0.030834 0.113362,0.056478 0.191407,0.082031 0.04223,-0.073559 0.07776,-0.1511808 0.111328,-0.2304688 -0.01526,-0.1219248 -0.03091,-0.2673284 -0.05859,-0.3828125 -0.01275,-0.015705 -0.05369,-0.081826 -0.06641,-0.099609 -0.0561,-0.012452 -0.112093,-0.025497 -0.167969,-0.039063 -0.0025,0.00706 -0.0073,0.020503 -0.0098,0.027344 -0.0022,0.017483 -0.0027,0.035557 -0.0059,0.052734 0.008,0.061854 0.0084,0.1504284 0.0078,0.2460937 0.04146,0.040608 0.05758,0.067879 0,0.064453 -0.0012,0.094315 -0.0028,0.1929075 -0.002,0.2792969 z m 0,-0.6425781 c 0.0012,-0.00982 0.0027,-0.019432 0.0039,-0.029297 -0.0798,-0.019372 -0.159674,-0.038677 -0.240228,-0.054687 -0.03089,0.020674 -0.05906,0.039915 -0.08984,0.060547 0.09215,0.1058645 0.180876,0.1875314 0.251954,0.25 0.01815,-0.066267 0.04334,-0.1397221 0.07422,-0.2265625 z m -4.158203,-0.96875 c 0.0035,0.05488 0.0068,0.1392667 0.0098,0.1855468 0.01267,-0.068736 0.02624,-0.1080928 0.03906,-0.1738281 -0.0104,-0.00333 -0.02088,-0.00635 -0.03125,-0.00977 -0.0059,-6.028e-4 -0.01163,-0.00134 -0.01758,-0.00195 z M 9.5566406,7.1484375 c -0.010111,-5.32e-5 -0.019544,0.00263 -0.029297,0.00391 l 0.029297,0.085937 c 2.4419294,2.7590057 0.9259494,-0.084963 0,-0.089844 z M 45.986328,7.3378906 c 8.79e-4,0.00579 0.0011,0.011788 0.002,0.017578 0.0034,0.00439 0.0084,0.00938 0.01172,0.013672 v -0.013672 c -0.0047,-0.00572 -0.0089,-0.011853 -0.01367,-0.017578 z M 15.544922,7.7519531 c -0.0097,0.00208 -0.01959,0.00367 -0.0293,0.00586 0.01991,-0.00232 0.02393,-7.795e-4 0.04687,-0.00391 0.0055,-7.453e-4 -0.01208,-0.00312 -0.01758,-0.00195 z M 8.1132812,11.029297 c 0.205692,0.206497 0.3629694,0.467879 0.5039063,0.802734 0.1227588,0.291665 -0.2107058,-0.669643 -0.5039063,-0.802734 z m 37.5624998,9.681641 c 0.01225,0.0112 0.02485,0.02201 0.03711,0.0332 0.0038,-2.05e-4 0.01482,0.0023 0.01172,0 -0.01823,-0.01353 -0.03088,-0.02001 -0.04883,-0.0332 z m -2.166015,15.089843 c -0.0772,0.01012 -0.155458,0.01616 -0.232422,0.02734 0.07239,0.0095 0.144467,0.02633 0.216797,0.03711 0.0048,-0.02164 0.01082,-0.04283 0.01563,-0.06445 z m -23.492188,7.132813 c -0.552365,0.0322 -0.963611,0.306034 -1.271484,1.169922 0.191436,0.03679 0.383054,0.07269 0.574218,0.109375 0.288306,0.05421 0.576254,0.104439 0.865235,0.152343 0.05691,-0.476785 0.130456,-0.949742 0.25,-1.414062 -0.05693,-0.0055 -0.117402,-0.01485 -0.171875,-0.01758 -0.08475,-0.0042 -0.167185,-0.0046 -0.246094,0 z m 0.517578,0.02734 c 0.01359,0.0056 0.02746,0.01205 0.04102,0.01758 -0.04015,0.0021 0.0071,-5.41e-4 0.04297,-0.002 5.8e-5,-0.0019 -5.8e-5,-0.0039 0,-0.0059 -0.02917,-0.0039 -0.05542,-0.0064 -0.08398,-0.0098 z M 46,43.621094 c -0.08146,0.282785 -0.02964,0.136641 -0.207031,0.61914 C 45.501461,44.868562 45.180133,45.493296 44.699219,46 H 46 Z m -13.330078,0.730468 c -0.02488,-0.0074 -0.05937,0.01773 -0.0957,0.05664 0.0385,-0.01013 0.07696,-0.02029 0.115234,-0.03125 -0.0059,-0.01044 -0.01079,-0.0228 -0.01953,-0.02539 z M 4,44.546875 V 46 H 6.8554688 C 6.6913311,45.926886 6.5304558,45.845662 6.3789062,45.744141 6.3193584,45.687334 6.2448999,45.66324 6.1699219,45.625 5.8561956,45.465014 5.5383858,45.3079 5.2597656,45.089844 c -0.052077,-0.0429 -0.080884,-0.06916 -0.1230468,-0.103516 -0.035872,0.0017 -0.071548,0.0045 -0.1074219,0.0059 C 4.7052336,44.88761 4.3735586,44.782276 4.0839844,44.597656 4.0567556,44.580297 4.0282566,44.563581 4,44.546875 Z" />
    </clipPath>
  </defs>
  <g
     id="Capa_1-2"
     data-name="Capa 1">
    <g
       id="g16">
      <circle
         class="cls-1"
         cx="9"
         cy="9"
         id="circle6"
         r="9" />
      <path
         id="path2"
         clip-path="url(#clipPath6420)"
         style="stroke-dasharray:none;stroke-miterlimit:4;stroke-width:13.4;fill-opacity:1;fill:#2b2a28;"
         inkscape:label="main image"
         d="M 13.085938,13 22.308594,26.103516 13,37 h 2.5 L 23.4375,27.707031 29.976562,37 h 7.9375 L 27.789062,22.613281 36,13 H 33.5 L 26.660156,21.009766 21.023438,13 Z m 3.828124,2 h 3.064454 l 14.107422,20 h -3.064454 z"
         transform="matrix(0.3958258,0,0,0.3958258,-1.0645041,-0.87313999)" />
    </g>
  </g>
</svg>
