<?xml version="1.0" encoding="UTF-8" standalone="no"?>
<svg
   id="Capa_2"
   data-name="Capa 2"
   viewBox="0 0 18 18"
   version="1.1"
   sodipodi:docname="social-media-instagram.svg"
   inkscape:version="1.3.1 (91b66b0783, 2023-11-16, custom)"
   xmlns:inkscape="http://www.inkscape.org/namespaces/inkscape"
   xmlns:sodipodi="http://sodipodi.sourceforge.net/DTD/sodipodi-0.dtd"
   xmlns="http://www.w3.org/2000/svg"
   xmlns:svg="http://www.w3.org/2000/svg">
  <sodipodi:namedview
     id="namedview20"
     pagecolor="#ffffff"
     bordercolor="#666666"
     borderopacity="1.0"
     inkscape:pageshadow="2"
     inkscape:pageopacity="0.0"
     inkscape:pagecheckerboard="0"
     showgrid="false"
     inkscape:zoom="48.388889"
     inkscape:cx="9.2479908"
     inkscape:cy="8.6383467"
     inkscape:window-width="1366"
     inkscape:window-height="717"
     inkscape:window-x="0"
     inkscape:window-y="27"
     inkscape:window-maximized="1"
     inkscape:current-layer="g16"
     inkscape:showpageshadow="2"
     inkscape:deskcolor="#d1d1d1" />
  <defs
     id="defs4">
    <style
       id="style2">
      .cls-1 {
        fill: #fff;
      }
.cls-2 { 
    fill:#2b2a28;
}
    </style>
  </defs>
  <g
     id="Capa_1-2"
     data-name="Capa 1">
    <g
       id="g16">
      <circle
         class="cls-1"
         cx="9"
         cy="9"
         r="9"
         id="circle6"
         inkscape:label="circle" />
      <g
         id="g14">
        <path
           class="cls-2"
           d="m11.68,13.81h-5.35c-1.17,0-2.13-.96-2.13-2.13v-5.35c0-1.17.96-2.13,2.13-2.13h5.35c1.17,0,2.13.95,2.13,2.13v5.35c0,1.17-.96,2.13-2.13,2.13ZM6.32,4.88c-.79,0-1.44.65-1.44,1.44v5.35c0,.79.65,1.44,1.44,1.44h5.35c.79,0,1.44-.65,1.44-1.44v-5.35c0-.79-.65-1.44-1.44-1.44h-5.35Z"
           id="path8"
           style="" />
        <path
           class="cls-2"
           d="m9,11.87c-1.58,0-2.87-1.29-2.87-2.87s1.29-2.87,2.87-2.87,2.87,1.29,2.87,2.87-1.29,2.87-2.87,2.87Zm0-5.04c-1.2,0-2.18.98-2.18,2.18s.98,2.18,2.18,2.18,2.18-.98,2.18-2.18-.98-2.18-2.18-2.18Z"
           id="path10"
           style="" />
        <path
           class="cls-2"
           d="m11.91,6.92c-.46,0-.83-.37-.83-.83s.37-.83.83-.83.83.37.83.83-.37.83-.83.83Zm0-.97c-.08,0-.14.06-.14.14s.06.14.14.14.14-.06.14-.14-.06-.14-.14-.14Z"
           id="path12"
           style="" />
      </g>
    </g>
  </g>
</svg>
