<?xml version="1.0" encoding="UTF-8"?>
<svg id="Capa_2" data-name="Capa 2" xmlns="http://www.w3.org/2000/svg" viewBox="0 0 102.35 58.6">
  <defs>
    <style>
      .cls-1 {
        fill: #fff;
      }

      .cls-2 {
        fill: #64bc64;
      }

      .cls-3 {
        fill: #f2e64e;
      }

      .cls-4 {
        fill: #f28519;
      }

      .cls-5 {
        fill: #5c90ce;
      }
    </style>
  </defs>
  <g id="Capa_1-2" data-name="Capa 1">
    <g>
      <path class="cls-1" d="m66.23,58.23c0,.12,0,.25,0,.37h-30.1c0-.12,0-.24,0-.37,0-10.75,6.74-19.46,15.06-19.46s15.06,8.71,15.06,19.46Z"/>
      <g>
        <circle class="cls-1" cx="50.74" cy="25.94" r="9.37"/>
        <g>
          <path class="cls-2" d="m8.5,0c.48,0,.96.09,1.43.29,1.88.79,2.75,2.95,1.97,4.83-3,7.14-4.53,14.82-4.53,22.84,0,6.39,1.03,12.82,3.07,19.11.62,1.94-.44,4.01-2.38,4.64-1.93.62-4.01-.44-4.64-2.38-2.27-7.03-3.42-14.22-3.42-21.38C0,18.94,1.72,10.3,5.11,2.26c.59-1.41,1.96-2.26,3.4-2.26Z"/>
          <path class="cls-5" d="m21.33,6.88c.47,0,.95.09,1.41.28,1.88.78,2.77,2.93,1.99,4.81-2.03,4.89-3.06,10.07-3.06,15.39,0,4.42.68,8.61,2.07,12.79.64,1.93-.4,4.02-2.33,4.66-1.94.64-4.02-.4-4.66-2.33-1.62-4.88-2.45-9.96-2.45-15.12,0-6.3,1.22-12.42,3.62-18.21.59-1.42,1.96-2.27,3.4-2.27Z"/>
          <path class="cls-1" d="m34.15,12.8c.47,0,.95.06,1.41.2,1.88.54,2.77,2.02,1.99,3.32-2.03,3.37-3.06,6.94-3.06,10.61,0,3.05.68,5.93,2.07,8.81.64,1.33-.4,2.77-2.33,3.21-1.94.44-4.02-.27-4.66-1.61-1.62-3.36-2.45-6.87-2.45-10.42,0-4.34,1.22-8.56,3.62-12.55.59-.98,1.96-1.57,3.4-1.57Z"/>
        </g>
        <g>
          <path class="cls-4" d="m93.85,1.11c-.48,0-.96.09-1.43.29-1.88.79-2.75,2.95-1.97,4.83,3,7.14,4.53,14.82,4.53,22.84,0,6.39-1.03,12.82-3.07,19.11-.62,1.94.44,4.01,2.38,4.64,1.93.62,4.01-.44,4.64-2.38,2.27-7.03,3.42-14.22,3.42-21.38,0-9.02-1.72-17.66-5.11-25.7-.59-1.41-1.96-2.26-3.4-2.26Z"/>
          <path class="cls-3" d="m81.03,7.99c-.47,0-.95.09-1.41.28-1.88.78-2.77,2.93-1.99,4.81,2.03,4.89,3.06,10.07,3.06,15.39,0,4.42-.68,8.61-2.07,12.79-.64,1.93.4,4.02,2.33,4.66,1.94.64,4.02-.4,4.66-2.33,1.62-4.88,2.45-9.96,2.45-15.12,0-6.3-1.22-12.42-3.62-18.21-.59-1.42-1.96-2.27-3.4-2.27Z"/>
          <path class="cls-1" d="m68.2,13.91c-.47,0-.95.06-1.41.2-1.88.54-2.77,2.02-1.99,3.32,2.03,3.37,3.06,6.94,3.06,10.61,0,3.05-.68,5.93-2.07,8.81-.64,1.33.4,2.77,2.33,3.21,1.94.44,4.02-.27,4.66-1.61,1.62-3.36,2.45-6.87,2.45-10.42,0-4.34-1.22-8.56-3.62-12.55-.59-.98-1.96-1.57-3.4-1.57Z"/>
        </g>
      </g>
    </g>
  </g>
</svg>