<?xml version="1.0" encoding="UTF-8"?>
<svg id="Capa_2" data-name="Capa 2" xmlns="http://www.w3.org/2000/svg" viewBox="0 0 48.78 25.5">
  <defs>
    <style>
      .cls-1 {
        fill: #fff;
      }

      .cls-1, .cls-2, .cls-3, .cls-4, .cls-5 {
        stroke: #fff;
        stroke-miterlimit: 10;
        stroke-width: .5px;
      }

      .cls-2 {
        fill: #5c90ce;
      }

      .cls-3 {
        fill: #f2e64e;
      }

      .cls-4 {
        fill: #64bc64;
      }

      .cls-5 {
        fill: #f28519;
      }
    </style>
  </defs>
  <g id="Capa_1-2" data-name="Capa 1">
    <g>
      <circle class="cls-1" cx="24.19" cy="12.49" r="4.42"/>
      <g>
        <path class="cls-4" d="m4.26.25c.23,0,.45.04.67.14.89.37,1.3,1.39.93,2.28-1.42,3.37-2.14,6.99-2.14,10.78,0,3.01.49,6.05,1.45,9.02.29.91-.21,1.89-1.12,2.19-.91.29-1.89-.21-2.19-1.12-1.07-3.32-1.61-6.71-1.61-10.08C.25,9.19,1.06,5.11,2.66,1.31c.28-.67.93-1.06,1.6-1.06Z"/>
        <path class="cls-2" d="m10.31,3.5c.22,0,.45.04.67.13.89.37,1.31,1.38.94,2.27-.96,2.31-1.44,4.75-1.44,7.26,0,2.09.32,4.06.98,6.03.3.91-.19,1.89-1.1,2.2-.91.3-1.89-.19-2.2-1.1-.77-2.3-1.15-4.7-1.15-7.13,0-2.97.57-5.86,1.71-8.59.28-.67.92-1.07,1.6-1.07Z"/>
        <path class="cls-1" d="m16.36,6.29c.22,0,.45.03.67.09.89.25,1.31.95.94,1.56-.96,1.59-1.44,3.27-1.44,5,0,1.44.32,2.8.98,4.16.3.63-.19,1.31-1.1,1.52-.91.21-1.89-.13-2.2-.76-.77-1.59-1.15-3.24-1.15-4.92,0-2.05.57-4.04,1.71-5.92.28-.46.92-.74,1.6-.74Z"/>
      </g>
      <g>
        <path class="cls-5" d="m44.52.77c-.23,0-.45.04-.67.14-.89.37-1.3,1.39-.93,2.28,1.42,3.37,2.14,6.99,2.14,10.78,0,3.01-.49,6.05-1.45,9.02-.29.91.21,1.89,1.12,2.19.91.29,1.89-.21,2.19-1.12,1.07-3.32,1.61-6.71,1.61-10.08,0-4.25-.81-8.33-2.41-12.13-.28-.67-.93-1.06-1.6-1.06Z"/>
        <path class="cls-3" d="m38.47,4.02c-.22,0-.45.04-.67.13-.89.37-1.31,1.38-.94,2.27.96,2.31,1.44,4.75,1.44,7.26,0,2.09-.32,4.06-.98,6.03-.3.91.19,1.89,1.1,2.2.91.3,1.89-.19,2.2-1.1.77-2.3,1.15-4.7,1.15-7.13,0-2.97-.57-5.86-1.71-8.59-.28-.67-.92-1.07-1.6-1.07Z"/>
        <path class="cls-1" d="m32.42,6.81c-.22,0-.45.03-.67.09-.89.25-1.31.95-.94,1.56.96,1.59,1.44,3.27,1.44,5,0,1.44-.32,2.8-.98,4.16-.3.63.19,1.31,1.1,1.52.91.21,1.89-.13,2.2-.76.77-1.59,1.15-3.24,1.15-4.92,0-2.05-.57-4.04-1.71-5.92-.28-.46-.92-.74-1.6-.74Z"/>
      </g>
    </g>
  </g>
</svg>