<?xml version="1.0" encoding="UTF-8"?>
<svg id="Capa_2" data-name="Capa 2" xmlns="http://www.w3.org/2000/svg" viewBox="0 0 152.82 54.27">
  <defs>
    <style>
      .cls-1 {
        fill: #f2e64e;
      }

      .cls-1, .cls-2, .cls-3, .cls-4, .cls-5 {
        stroke: #fff;
        stroke-miterlimit: 10;
      }

      .cls-6, .cls-5 {
        fill: #fff;
      }

      .cls-2 {
        fill: #64bc64;
      }

      .cls-3 {
        fill: #f28519;
      }

      .cls-4 {
        fill: #5c90ce;
      }
    </style>
  </defs>
  <g id="Capa_1-2" data-name="Capa 1">
    <g>
      <g>
        <path class="cls-2" d="m6.2.5c.32,0,.65.06.96.19,1.26.53,1.85,1.98,1.32,3.24-2.01,4.79-3.04,9.94-3.04,15.32,0,4.28.69,8.6,2.06,12.82.42,1.3-.29,2.69-1.59,3.11-1.29.42-2.69-.3-3.11-1.59-1.52-4.72-2.29-9.54-2.29-14.34C.5,13.21,1.65,7.41,3.92,2.01c.4-.95,1.32-1.51,2.28-1.51Z"/>
        <path class="cls-4" d="m14.81,5.11c.32,0,.64.06.95.19,1.26.52,1.86,1.97,1.34,3.23-1.36,3.28-2.05,6.76-2.05,10.33,0,2.97.45,5.77,1.39,8.58.43,1.3-.27,2.69-1.56,3.13-1.3.43-2.69-.27-3.13-1.56-1.09-3.27-1.64-6.68-1.64-10.14,0-4.22.82-8.33,2.43-12.22.39-.95,1.31-1.53,2.28-1.53Z"/>
        <path class="cls-5" d="m23.41,9.09c.32,0,.64.04.95.13,1.26.36,1.86,1.36,1.34,2.23-1.36,2.26-2.05,4.66-2.05,7.12,0,2.05.45,3.98,1.39,5.91.43.89-.27,1.86-1.56,2.16-1.3.3-2.69-.18-3.13-1.08-1.09-2.25-1.64-4.61-1.64-6.99,0-2.91.82-5.74,2.43-8.42.39-.66,1.31-1.05,2.28-1.05Z"/>
      </g>
      <g>
        <path class="cls-3" d="m146.61.5c-.32,0-.65.06-.96.19-1.26.53-1.85,1.98-1.32,3.24,2.01,4.79,3.04,9.94,3.04,15.32,0,4.28-.69,8.6-2.06,12.82-.42,1.3.29,2.69,1.59,3.11,1.29.42,2.69-.3,3.11-1.59,1.52-4.72,2.29-9.54,2.29-14.34,0-6.05-1.15-11.85-3.42-17.24-.4-.95-1.32-1.51-2.28-1.51Z"/>
        <path class="cls-1" d="m138.01,5.11c-.32,0-.64.06-.95.19-1.26.52-1.86,1.97-1.34,3.23,1.36,3.28,2.05,6.76,2.05,10.33,0,2.97-.45,5.77-1.39,8.58-.43,1.3.27,2.69,1.56,3.13,1.3.43,2.69-.27,3.13-1.56,1.09-3.27,1.64-6.68,1.64-10.14,0-4.22-.82-8.33-2.43-12.22-.39-.95-1.31-1.53-2.28-1.53Z"/>
        <path class="cls-5" d="m129.41,9.09c-.32,0-.64.04-.95.13-1.26.36-1.86,1.36-1.34,2.23,1.36,2.26,2.05,4.66,2.05,7.12,0,2.05-.45,3.98-1.39,5.91-.43.89.27,1.86,1.56,2.16,1.3.3,2.69-.18,3.13-1.08,1.09-2.25,1.64-4.61,1.64-6.99,0-2.91-.82-5.74-2.43-8.42-.39-.66-1.31-1.05-2.28-1.05Z"/>
      </g>
      <path class="cls-6" d="m58.57.66h4.53v34.49h-4.72V9.32l.24,1.52-8.49,19.52h-3.37l-8.49-19.05.24-1.99v25.83h-4.72V.66h4.53l10.13,22.77L58.57.66Z"/>
      <path class="cls-6" d="m79.08.66h4.13l12.71,34.49h-5.22l-9.56-27.83-9.56,27.83h-5.22L79.08.66Zm-6.86,22.32h18.15v4.6h-18.15v-4.6Z"/>
      <path class="cls-6" d="m120.33,20.83c-.94-1.28-2.11-2.21-3.51-2.79-1.4-.58-3.14-1.07-5.23-1.49-.08-.01-.17-.03-.26-.05-.09-.01-.18-.03-.26-.05-.06-.01-.12-.03-.17-.04-.06,0-.12-.02-.18-.03-1.79-.34-3.18-.67-4.19-1-1-.32-1.84-.81-2.51-1.48s-1.01-1.59-1.01-2.76v-.02c0-1.69.65-3,1.96-3.93,1.3-.93,3.13-1.32,5.49-1.39,1.65-.05,2.82.35,4.18.67,1.06.25,3.29,1.18,5.01,2.12V3.18c-.2-.1-3.05-.99-4.71-1.29-1.2-.22-3.25-.57-4.49-.57-2.58,0-4.78.39-6.62,1.17-1.83.78-3.23,1.91-4.18,3.4-.96,1.49-1.44,3.28-1.44,5.38v.02c0,2.4.52,4.25,1.54,5.55,1.03,1.3,2.26,2.2,3.71,2.68,1.45.49,3.32.93,5.63,1.32l.35.07s.1.02.16.02c.05,0,.1,0,.15.02,1.57.28,2.84.59,3.83.92.99.33,1.8.85,2.42,1.54.62.69.94,1.63.94,2.81v.02c0,1.67-.69,2.95-2.06,3.87-1.38.91-3.31,1.36-5.81,1.36-1.85,0-3.57-.28-5.15-.84-1.57-.56-3.48-1.39-4.79-2.5v5.66c.19.1.38.2.58.29,1.29.62,3.15,1.09,4.64,1.4,1.48.31,3.06.47,4.72.47,2.67,0,4.95-.39,6.84-1.15,1.89-.77,3.33-1.89,4.33-3.36s1.49-3.24,1.49-5.31v-.05c0-2.23-.47-3.98-1.41-5.27Z"/>
      <g>
        <path class="cls-6" d="m82.81,43.99h1.99v10.1h-1.99v-10.1Zm4.9,1.91c-.27-.11-.57-.17-.92-.17-.63,0-1.12.17-1.46.52s-.52.83-.52,1.45l-.2-1.95c.31-.6.71-1.07,1.21-1.41s1.04-.5,1.64-.5c.46,0,.88.07,1.25.2s.7.33.98.59l-1.29,1.75c-.18-.21-.4-.38-.66-.49Z"/>
        <path class="cls-6" d="m90.76,53.47c-.62-.52-.92-1.3-.92-2.35s.28-1.75.85-2.25,1.42-.75,2.56-.75h2.87l.14,1.6h-3c-.52,0-.91.12-1.16.35s-.38.58-.38,1.06c0,.51.17.89.51,1.14s.86.37,1.55.37c.76,0,1.33-.08,1.7-.24s.56-.42.56-.76l.2,1.42c-.18.27-.39.5-.65.67s-.55.31-.89.39-.72.13-1.14.13c-1.25,0-2.18-.26-2.79-.77Zm5.27-5.78c0-.66-.18-1.18-.53-1.54s-.85-.55-1.5-.55c-.4,0-.8.06-1.18.18s-.73.3-1.03.52l-1.45-.99c.38-.46.89-.82,1.51-1.08.63-.26,1.32-.38,2.09-.38.84,0,1.55.15,2.15.44s1.05.72,1.36,1.28.47,1.24.47,2.03v6.49h-1.89v-6.4Z"/>
        <path class="cls-6" d="m101.25,53.79c-.52-.32-.92-.79-1.19-1.41s-.41-1.36-.41-2.22v-2.23c0-.87.13-1.61.4-2.23.27-.62.65-1.09,1.16-1.41s1.12-.48,1.83-.48c.6,0,1.14.16,1.64.47s.9.75,1.2,1.31l-.2,2.06c0-.43-.08-.79-.23-1.1s-.38-.54-.68-.7-.65-.24-1.08-.24c-.66,0-1.16.2-1.52.61s-.54.98-.54,1.72v2.2c0,.73.18,1.3.54,1.7s.87.6,1.52.6c.42,0,.78-.08,1.08-.25s.52-.4.68-.72.23-.68.23-1.12l.14,2.13c-.2.5-.53.92-.99,1.26s-1.02.51-1.69.51c-.74,0-1.37-.16-1.89-.48Zm4.43-13.85h1.99v14.15h-1.99v-14.15Z"/>
        <path class="cls-6" d="m109.69,39.94h1.99v1.99h-1.99v-1.99Zm0,4.05h1.99v10.1h-1.99v-10.1Z"/>
        <path class="cls-6" d="m115.32,53.72c-.62-.34-1.1-.85-1.43-1.5s-.49-1.45-.49-2.38v-1.65c0-.91.16-1.7.49-2.35s.8-1.15,1.43-1.49c.62-.34,1.37-.51,2.25-.51s1.63.17,2.25.51c.62.34,1.1.84,1.43,1.49s.49,1.44.49,2.35v1.67c0,.92-.16,1.71-.49,2.36s-.8,1.15-1.43,1.49-1.37.52-2.25.52-1.63-.17-2.25-.52Zm3.86-2.02c.38-.43.57-1.04.57-1.83v-1.67c0-.79-.19-1.39-.57-1.82s-.92-.64-1.61-.64-1.23.21-1.61.64-.57,1.04-.57,1.82v1.67c0,.79.19,1.4.57,1.83s.92.65,1.61.65,1.23-.22,1.61-.65Z"/>
      </g>
    </g>
  </g>
</svg>