<?xml version="1.0" encoding="UTF-8"?>
<svg id="Capa_2" data-name="Capa 2" xmlns="http://www.w3.org/2000/svg" viewBox="0 0 15.48 20">
  <defs>
    <style>
      .cls-1 {
        fill: #fff;
      }
    </style>
  </defs>
  <g id="Capa_1-2" data-name="Capa 1">
    <g>
      <path class="cls-1" d="m15.04,7.89H.43c-.38,0-.57-.4-.32-.65L7.42.13c.17-.17.47-.17.64,0l7.31,7.12c.25.25.06.65-.32.65Z"/>
      <path class="cls-1" d="m14.58,9.23H.9c-.31,0-.56.25-.56.56v9.64c0,.31.25.56.56.56h4.82v-6.38c0-.19.16-.35.35-.35h3.33c.19,0,.35.16.35.35v6.38h4.82c.31,0,.56-.25.56-.56v-9.64c0-.31-.25-.56-.56-.56Z"/>
    </g>
  </g>
</svg>