<?xml version="1.0" encoding="UTF-8"?>
<svg id="Capa_2" data-name="Capa 2" xmlns="http://www.w3.org/2000/svg" viewBox="0 0 9.84 18">
  <defs>
    <style>
      .cls-1 {
        fill: #fff;
      }

      .cls-2 {
        fill: #c94927;
      }
    </style>
  </defs>
  <g id="Capa_1-2" data-name="Capa 1">
    <g>
      <g>
        <path class="cls-1" d="m4.82,12.56c-1.21,0-2.2-.78-2.2-1.75v-4.99c0-.96.98-1.75,2.2-1.75s2.2.78,2.2,1.75v4.99c0,.96-.98,1.75-2.2,1.75Z"/>
        <path class="cls-1" d="m9.77,8.84c-.06-.34-.38-.57-.72-.51-.34.06-.57.38-.52.72,0,.02.35,2.19-.77,3.51-.59.69-1.51,1.04-2.74,1.04-.04,0-.07.01-.1.02-.03,0-.07-.02-.1-.02-1.23,0-2.15-.35-2.74-1.04-1.11-1.31-.78-3.46-.77-3.51.06-.34-.17-.67-.51-.72-.34-.06-.67.17-.72.51-.02.11-.45,2.76,1.04,4.52.84.99,2.08,1.49,3.7,1.49.04,0,.07-.01.1-.02.03,0,.07.02.1.02,1.62,0,2.86-.5,3.7-1.49,1.49-1.77,1.06-4.41,1.04-4.52Z"/>
        <path class="cls-1" d="m7.12,16.74h-1.57v-2.51c0-.35-.28-.63-.63-.63s-.63.28-.63.63v2.51h-1.57c-.35,0-.63.28-.63.63s.28.63.63.63h4.4c.35,0,.63-.28.63-.63s-.28-.63-.63-.63Z"/>
      </g>
      <circle class="cls-2" cx="4.82" cy=".94" r=".94"/>
    </g>
  </g>
</svg>