<?xml version="1.0" encoding="UTF-8"?>
<svg id="Capa_2" data-name="Capa 2" xmlns="http://www.w3.org/2000/svg" viewBox="0 0 13.55 20">
  <defs>
    <style>
      .cls-1 {
        fill: #fff;
      }
    </style>
  </defs>
  <g id="Capa_1-2" data-name="Capa 1">
    <g>
      <g>
        <path class="cls-1" d="m6.65,13.62c-1.42,0-2.58-.92-2.58-2.05v-5.85c0-1.13,1.15-2.05,2.58-2.05s2.58.92,2.58,2.05v5.85c0,1.13-1.15,2.05-2.58,2.05Z"/>
        <path class="cls-1" d="m12.46,9.26c-.07-.4-.45-.67-.85-.6-.4.07-.67.45-.6.85,0,.03.41,2.57-.9,4.12-.69.81-1.77,1.22-3.21,1.22-.04,0-.08.02-.12.02-.04,0-.08-.02-.12-.02-1.44,0-2.52-.41-3.21-1.22-1.3-1.53-.91-4.06-.9-4.11.07-.4-.2-.78-.6-.85-.4-.07-.78.2-.85.6-.02.13-.52,3.23,1.22,5.3.98,1.16,2.44,1.75,4.34,1.75.04,0,.08-.02.12-.02.04,0,.08.02.12.02,1.9,0,3.36-.59,4.34-1.75,1.75-2.07,1.25-5.17,1.22-5.3Z"/>
        <path class="cls-1" d="m9.35,18.53h-1.84v-2.94c0-.41-.33-.74-.74-.74s-.74.33-.74.74v2.94h-1.84c-.41,0-.74.33-.74.74s.33.74.74.74h5.15c.41,0,.74-.33.74-.74s-.33-.74-.74-.74Z"/>
      </g>
      <g>
        <g>
          <path class="cls-1" d="m13.01,3.12l-2.11,1.12c-.18.09-.25.32-.15.5.1.18.32.25.5.15l2.11-1.12s.06-.04.09-.07c.11-.11.14-.29.07-.43-.1-.18-.32-.25-.5-.15Z"/>
          <path class="cls-1" d="m9.24,2.74s.05-.05.07-.09l1.12-2.11c.1-.18.03-.4-.15-.5-.18-.09-.4-.03-.5.15l-1.12,2.11c-.1.18-.03.4.15.5.15.08.32.05.43-.07Z"/>
          <path class="cls-1" d="m11.55,1.48l-1.78,1.78c-.14.14-.14.38,0,.52s.38.14.52,0l1.78-1.78c.14-.14.14-.38,0-.52s-.38-.14-.52,0Z"/>
        </g>
        <g>
          <path class="cls-1" d="m.54,3.12l2.11,1.12c.18.09.25.32.15.5-.1.18-.32.25-.5.15L.2,3.77s-.06-.04-.09-.07c-.11-.11-.14-.29-.07-.43.1-.18.32-.25.5-.15Z"/>
          <path class="cls-1" d="m4.3,2.74s-.05-.05-.07-.09L3.12.54c-.1-.18-.03-.4.15-.5.18-.09.4-.03.5.15l1.12,2.11c.1.18.03.4-.15.5-.15.08-.32.05-.43-.07Z"/>
          <path class="cls-1" d="m2,1.48l1.78,1.78c.14.14.14.38,0,.52s-.38.14-.52,0l-1.78-1.78c-.14-.14-.14-.38,0-.52s.38-.14.52,0Z"/>
        </g>
      </g>
    </g>
  </g>
</svg>