<?xml version="1.0" encoding="UTF-8" standalone="no"?>
<svg
   id="Capa_2"
   data-name="Capa 2"
   viewBox="0 0 18 18"
   version="1.1"
   sodipodi:docname="social-media-facebook.svg"
   inkscape:version="1.3.1 (91b66b0783, 2023-11-16, custom)"
   xmlns:inkscape="http://www.inkscape.org/namespaces/inkscape"
   xmlns:sodipodi="http://sodipodi.sourceforge.net/DTD/sodipodi-0.dtd"
   xmlns="http://www.w3.org/2000/svg"
   xmlns:svg="http://www.w3.org/2000/svg">
  <style
     id="style1">
.path { 
    fill:#2b2a28;
}
.background { fill:white; }
</style>
  <defs
     id="defs1" />
  <sodipodi:namedview
     id="namedview1"
     pagecolor="#ffffff"
     bordercolor="#000000"
     borderopacity="0.25"
     inkscape:showpageshadow="2"
     inkscape:pageopacity="0.0"
     inkscape:pagecheckerboard="0"
     inkscape:deskcolor="#d1d1d1"
     inkscape:zoom="28.888889"
     inkscape:cx="9.0173077"
     inkscape:cy="8.9653846"
     inkscape:window-width="1366"
     inkscape:window-height="717"
     inkscape:window-x="0"
     inkscape:window-y="27"
     inkscape:window-maximized="1"
     inkscape:current-layer="Capa_2" />
  <circle
     cx="9"
     cy="9"
     r="9"
     id="circle"
     style=""
     inkscape:label="circle"
     class="background" />
  <path
     d="m 9.81,14.41 h -2 c -0.19,0 -0.35,-0.15 -0.35,-0.35 V 9.76 H 6.42 C 6.23,9.76 6.07,9.61 6.07,9.41 V 7.61 C 6.07,7.42 6.22,7.26 6.42,7.26 H 7.46 V 6.05 c 0,-1.36 1.1,-2.46 2.46,-2.46 h 1.65 c 0.19,0 0.35,0.15 0.35,0.35 v 1.67 c 0,0.19 -0.15,0.35 -0.35,0.35 h -1 c -0.23,0 -0.43,0.19 -0.43,0.43 v 0.89 h 1.42 c 0.19,0 0.35,0.15 0.35,0.35 v 1.8 c 0,0.19 -0.15,0.35 -0.35,0.35 h -1.42 v 4.3 c 0,0.19 -0.15,0.35 -0.35,0.35 z M 8.15,13.72 h 1.31 v -4.3 c 0,-0.19 0.15,-0.35 0.35,-0.35 h 1.42 V 7.96 H 9.81 C 9.62,7.96 9.46,7.81 9.46,7.61 V 6.38 c 0,-0.62 0.5,-1.12 1.12,-1.12 h 0.65 V 4.28 H 9.92 c -0.98,0 -1.77,0.8 -1.77,1.77 V 7.61 C 8.15,7.8 8,7.96 7.8,7.96 H 6.76 V 9.07 H 7.8 c 0.19,0 0.35,0.15 0.35,0.35 z"
     id="icon"
     style=""
     inkscape:label="icon"
     class="path" />
</svg>
